<?xml version="1.0" encoding="UTF-8" standalone="no"?>
<!-- Generator: Adobe Illustrator 21.1.0, SVG Export Plug-In . SVG Version: 6.00 Build 0)  -->

<svg
   version="1.1"
   id="Ebene_1"
   x="0px"
   y="0px"
   viewBox="0 0 161.6 161.6"
   style="enable-background:new 0 0 161.6 161.6;"
   xml:space="preserve"
   sodipodi:docname="draw.io.svg"
   inkscape:version="1.3 (0e150ed6c4, 2023-07-21)"
   xmlns:inkscape="http://www.inkscape.org/namespaces/inkscape"
   xmlns:sodipodi="http://sodipodi.sourceforge.net/DTD/sodipodi-0.dtd"
   xmlns="http://www.w3.org/2000/svg"
   xmlns:svg="http://www.w3.org/2000/svg"><defs
   id="defs3" /><sodipodi:namedview
   id="namedview3"
   pagecolor="#ffffff"
   bordercolor="#000000"
   borderopacity="0.25"
   inkscape:showpageshadow="2"
   inkscape:pageopacity="0.0"
   inkscape:pagecheckerboard="0"
   inkscape:deskcolor="#d1d1d1"
   inkscape:zoom="1.9585395"
   inkscape:cx="-62.801899"
   inkscape:cy="84.501742"
   inkscape:window-width="1600"
   inkscape:window-height="829"
   inkscape:window-x="-8"
   inkscape:window-y="-8"
   inkscape:window-maximized="1"
   inkscape:current-layer="g3" />&#10;<style
   type="text/css"
   id="style1">&#10;	.st0{fill:#F08705;}&#10;	.st1{fill:#DF6C0C;}&#10;	.st2{fill:#FFFFFF;}&#10;	.st3{fill:#333333;}&#10;</style>&#10;<g
   id="g3">&#10;	&#10;	&#10;	&#10;<path
   id="path4"
   style="fill:#245182;fill-opacity:0.80000001;stroke-width:1.51448"
   d="M 80.800781 -0.19921875 A 81 81 0 0 0 -0.19921875 80.800781 A 81 81 0 0 0 80.800781 161.80078 A 81 81 0 0 0 161.80078 80.800781 A 81 81 0 0 0 80.800781 -0.19921875 z M 69.173828 31.453125 L 92.603516 31.453125 C 96.430326 31.453125 99.476562 34.499362 99.476562 38.326172 L 99.476562 56.367188 C 99.476563 59.64731 97.133693 62.459199 94.009766 63.083984 L 108.06641 86.982422 L 121.34375 86.982422 C 125.17057 86.982422 128.2168 90.106784 128.2168 93.933594 L 128.2168 111.97266 C 128.2168 115.79946 125.17057 118.8457 121.34375 118.8457 L 97.914062 118.8457 C 94.087251 118.8457 91.041016 115.79946 91.041016 111.97266 L 91.041016 93.933594 C 91.041016 90.106784 94.087251 87.060547 97.914062 87.060547 L 100.25781 87.060547 L 86.277344 63.318359 L 75.421875 63.318359 L 61.521484 87.060547 L 63.785156 87.060547 C 67.611967 87.060547 70.658203 90.106784 70.658203 93.933594 L 70.658203 111.97266 C 70.658203 115.79946 67.611967 118.8457 63.785156 118.8457 L 40.355469 118.8457 C 36.528659 118.8457 33.484375 115.79946 33.484375 111.97266 L 33.484375 93.933594 C 33.484375 90.106784 36.528659 87.060547 40.355469 87.060547 L 53.632812 87.060547 L 67.691406 63.083984 C 64.645577 62.459199 62.300781 59.725409 62.300781 56.367188 L 62.300781 38.326172 C 62.300781 34.499362 65.347017 31.453125 69.173828 31.453125 z " /></g>&#10;</svg>
