<?xml version="1.0" encoding="UTF-8" standalone="no"?>
<!-- Generator: Adobe Illustrator 21.1.0, SVG Export Plug-In . SVG Version: 6.00 Build 0)  -->

<svg
   version="1.1"
   id="Ebene_1"
   x="0px"
   y="0px"
   viewBox="0 0 161.6 161.6"
   style="enable-background:new 0 0 161.6 161.6;"
   xml:space="preserve"
   sodipodi:docname="Diagrams.net_Logo.svg"
   inkscape:version="1.3 (0e150ed6c4, 2023-07-21)"
   xmlns:inkscape="http://www.inkscape.org/namespaces/inkscape"
   xmlns:sodipodi="http://sodipodi.sourceforge.net/DTD/sodipodi-0.dtd"
   xmlns="http://www.w3.org/2000/svg"
   xmlns:svg="http://www.w3.org/2000/svg"><defs
   id="defs3" /><sodipodi:namedview
   id="namedview3"
   pagecolor="#ffffff"
   bordercolor="#000000"
   borderopacity="0.25"
   inkscape:showpageshadow="2"
   inkscape:pageopacity="0.0"
   inkscape:pagecheckerboard="0"
   inkscape:deskcolor="#d1d1d1"
   inkscape:zoom="1.9585395"
   inkscape:cx="-62.801898"
   inkscape:cy="84.501741"
   inkscape:window-width="1600"
   inkscape:window-height="829"
   inkscape:window-x="-8"
   inkscape:window-y="-8"
   inkscape:window-maximized="1"
   inkscape:current-layer="g3" />&#10;<style
   type="text/css"
   id="style1">&#10;	.st0{fill:#F08705;}&#10;	.st1{fill:#DF6C0C;}&#10;	.st2{fill:#FFFFFF;}&#10;	.st3{fill:#333333;}&#10;</style>&#10;<g
   id="g3">&#10;	&#10;	&#10;	&#10;<circle
   style="fill:#f08705;fill-opacity:1;stroke-width:1.51448"
   id="path4"
   cx="80.800003"
   cy="80.800003"
   r="81" /><path
   class="st2"
   d="m 121.34394,86.981885 h -13.2767 L 94.009555,63.08382 c 3.12393,-0.624786 5.466878,-3.436323 5.466878,-6.716449 V 38.326675 c 0,-3.826814 -3.045832,-6.872646 -6.872646,-6.872646 H 69.174312 c -3.826815,0 -6.872646,3.045832 -6.872646,6.872646 v 18.040696 c 0,3.358225 2.342947,6.091663 5.388779,6.716449 L 53.63276,87.059983 H 40.356057 c -3.826814,0 -6.872646,3.045832 -6.872646,6.872646 v 18.040701 c 0,3.82681 3.045832,6.87264 6.872646,6.87264 h 23.429475 c 3.826815,0 6.872646,-3.04583 6.872646,-6.87264 V 93.932629 c 0,-3.826814 -3.045831,-6.872646 -6.872646,-6.872646 H 61.520683 L 75.422172,63.318115 h 10.855656 l 13.979592,23.741868 h -2.342952 c -3.826815,0 -6.872646,3.045832 -6.872646,6.872646 v 18.040701 c 0,3.82681 3.045831,6.87264 6.872646,6.87264 h 23.429472 c 3.82682,0 6.87265,-3.04583 6.87265,-6.87264 V 93.932629 c 0,-3.826814 -3.04583,-6.950744 -6.87265,-6.950744 z"
   id="path3"
   style="stroke-width:0.780982" /></g>&#10;</svg>
