<?xml version="1.0" encoding="UTF-8" standalone="no"?>
<svg
   viewBox="0 0 77.999997 78"
   version="1.1"
   id="svg14"
   sodipodi:docname="drive.svg"
   width="78"
   height="78"
   inkscape:export-filename="drive-color.png"
   inkscape:export-xdpi="96"
   inkscape:export-ydpi="96"
   inkscape:version="1.2.2 (732a01da63, 2022-12-09)"
   xmlns:inkscape="http://www.inkscape.org/namespaces/inkscape"
   xmlns:sodipodi="http://sodipodi.sourceforge.net/DTD/sodipodi-0.dtd"
   xmlns="http://www.w3.org/2000/svg"
   xmlns:svg="http://www.w3.org/2000/svg">
  <defs
     id="defs18" />
  <sodipodi:namedview
     id="namedview16"
     pagecolor="#ffffff"
     bordercolor="#000000"
     borderopacity="0.25"
     inkscape:showpageshadow="2"
     inkscape:pageopacity="0.0"
     inkscape:pagecheckerboard="0"
     inkscape:deskcolor="#d1d1d1"
     showgrid="false"
     inkscape:zoom="2.3796863"
     inkscape:cx="24.793184"
     inkscape:cy="38.660558"
     inkscape:window-width="1366"
     inkscape:window-height="705"
     inkscape:window-x="-8"
     inkscape:window-y="-8"
     inkscape:window-maximized="1"
     inkscape:current-layer="svg14" />
  <path
     id="path493"
     style="fill:#245182;stroke:none;stroke-width:30.8844;fill-opacity:0.80000001"
     d="M 39 0 A 39 39 0 0 0 0 39 A 39 39 0 0 0 39 78 A 39 39 0 0 0 78 39 A 39 39 0 0 0 39 0 z M 34.568359 20.3125 L 43.431641 20.3125 C 44.198306 20.3125 44.941017 20.503386 45.587891 20.886719 C 46.234764 21.270051 46.786589 21.797918 47.169922 22.46875 L 53.255859 33.009766 L 59.316406 43.552734 C 59.699739 44.223567 59.892578 44.966277 59.892578 45.708984 L 59.916016 45.708984 C 59.916016 46.451691 59.723177 47.194402 59.339844 47.865234 L 55.675781 54.212891 L 54.908203 55.53125 C 54.524871 56.202082 53.973045 56.729948 53.326172 57.113281 C 52.679298 57.472655 51.936587 57.6875 51.169922 57.6875 L 26.830078 57.6875 C 26.063413 57.6875 25.320702 57.496614 24.673828 57.113281 C 24.026954 56.729948 23.475129 56.202082 23.091797 55.53125 L 21.246094 52.345703 L 18.660156 47.865234 C 18.276824 47.194402 18.083984 46.451691 18.083984 45.708984 A 4.3412499 4.3412499 0 0 1 18.660156 43.552734 L 30.830078 22.46875 C 31.213411 21.797918 31.765236 21.270051 32.412109 20.886719 C 33.058983 20.527344 33.801694 20.3125 34.568359 20.3125 z M 39 32.291016 L 31.261719 45.708984 L 46.738281 45.708984 L 39 32.291016 z " />
  <g
     id="g437"
     transform="matrix(0.47916666,0,0,0.47916666,18.084379,20.312499)"
     style="fill:#ffffff;fill-opacity:1" />
</svg>
