<?xml version="1.0" encoding="UTF-8" standalone="no"?><!--Generator: Adobe Illustrator 24.3.0, SVG Export Plug-In . SVG Version: 6.00 Build 0)--><svg xmlns="http://www.w3.org/2000/svg" xml:space="preserve" id="svg1" version="1.1" viewBox="0 0 1600 1599.9999"><path id="path17" fill="#0866ff" d="M799.99999 1599.9999C1241.8333 1599.9999 1600 1241.8266 1600 800c0-441.82668-358.1667-800-800.00001-800C358.17333 0 0 358.17332 0 800c0 441.8266 358.17333 799.9999 799.99999 799.9999Z"/><path id="path4" fill="#fff" d="M606.72332 1576.4999v-532.0166h-165.12V799.99666h165.12V694.71665c0-272.32333 123.19667-398.40332 390.41-398.40332 50.53328 0 137.89998 9.92 173.73328 19.84001v221.44333c-18.8666-1.92001-51.8333-2.88-92.4666-2.88-131.19998 0-181.75668 49.59999-181.75668 178.87999v86.4H1158.1l-44.8334 244.48664H896.95999v549.7c-31.78334 3.84-64.14 5.8166-96.96 5.8166-66.64333 0-131.38333-8.15-193.27667-23.5Z"/></svg>