<?xml version="1.0" encoding="UTF-8" standalone="no"?>
<!--Generator: Adobe Illustrator 24.3.0, SVG Export Plug-In . SVG Version: 6.00 Build 0)-->

<svg
   xml:space="preserve"
   id="svg1"
   version="1.1"
   viewBox="0 0 1600 1599.9999"
   sodipodi:docname="facebook.svg"
   inkscape:version="1.2.2 (732a01da63, 2022-12-09)"
   xmlns:inkscape="http://www.inkscape.org/namespaces/inkscape"
   xmlns:sodipodi="http://sodipodi.sourceforge.net/DTD/sodipodi-0.dtd"
   xmlns="http://www.w3.org/2000/svg"
   xmlns:svg="http://www.w3.org/2000/svg"><defs
     id="defs7" /><sodipodi:namedview
     id="namedview5"
     pagecolor="#ffffff"
     bordercolor="#000000"
     borderopacity="0.25"
     inkscape:showpageshadow="2"
     inkscape:pageopacity="0.0"
     inkscape:pagecheckerboard="0"
     inkscape:deskcolor="#d1d1d1"
     showgrid="false"
     inkscape:zoom="0.32812503"
     inkscape:cx="801.52374"
     inkscape:cy="804.57136"
     inkscape:window-width="1366"
     inkscape:window-height="705"
     inkscape:window-x="-8"
     inkscape:window-y="-8"
     inkscape:window-maximized="1"
     inkscape:current-layer="svg1" /><path
     id="path17"
     style="fill:#245182;fill-opacity:0.80000001"
     d="M 800 0 C 358.17378 0 -1.515823e-13 358.17376 0 800 C 0 1175.1647 258.29843 1489.8825 606.72266 1576.3496 L 606.72266 1044.4824 L 441.60352 1044.4824 L 441.60352 799.99609 L 606.72266 799.99609 L 606.72266 694.7168 C 606.72266 422.39374 729.91975 296.3125 997.13281 296.3125 C 1047.666 296.3125 1135.0339 306.2343 1170.8672 316.1543 L 1170.8672 537.5957 C 1152.0006 535.6757 1119.0336 534.7168 1078.4004 534.7168 C 947.20054 534.7168 896.64258 584.31583 896.64258 713.5957 L 896.64258 799.99609 L 1158.0996 799.99609 L 1113.2656 1044.4824 L 896.96094 1044.4824 L 896.96094 1593.9414 C 1293.0314 1546.0537 1600 1208.9826 1600 800 C 1600 358.17376 1241.8329 0 800 0 z M 617.01172 1578.7246 C 627.01342 1581.0662 637.05502 1583.2876 647.19727 1585.25 C 637.05657 1583.2884 627.01186 1581.0651 617.01172 1578.7246 z M 663.38086 1588.1406 C 672.91769 1589.7826 682.50516 1591.2575 692.1543 1592.5586 C 682.50646 1591.2578 672.91637 1589.782 663.38086 1588.1406 z M 890.37695 1594.7793 C 880.27238 1595.916 870.08792 1596.7804 859.87305 1597.5371 C 870.08916 1596.7804 880.27121 1595.9162 890.37695 1594.7793 z M 714.14258 1595.3535 C 716.36022 1595.5902 718.56995 1595.8479 720.79297 1596.0664 C 718.57045 1595.8479 716.35972 1595.5901 714.14258 1595.3535 z M 845.43555 1598.6348 C 830.38986 1599.4777 815.257 1600 800 1600 C 815.25756 1600 830.38884 1599.4777 845.43555 1598.6348 z M 755.99805 1598.7441 C 758.32621 1598.8704 760.66268 1598.9581 762.99609 1599.0645 C 760.66321 1598.9582 758.32568 1598.8704 755.99805 1598.7441 z " /></svg>
