<?xml version="1.0" encoding="UTF-8" standalone="no"?>
<svg
   version="1.0"
   width="48"
   height="48"
   viewBox="0 0 35.999998 36"
   preserveAspectRatio="xMidYMid"
   id="svg6"
   sodipodi:docname="github.svg"
   inkscape:version="1.2.2 (732a01da63, 2022-12-09)"
   xmlns:inkscape="http://www.inkscape.org/namespaces/inkscape"
   xmlns:sodipodi="http://sodipodi.sourceforge.net/DTD/sodipodi-0.dtd"
   xmlns="http://www.w3.org/2000/svg"
   xmlns:svg="http://www.w3.org/2000/svg">
  <defs
     id="defs10" />
  <sodipodi:namedview
     id="namedview8"
     pagecolor="#ffffff"
     bordercolor="#000000"
     borderopacity="0.25"
     inkscape:showpageshadow="2"
     inkscape:pageopacity="0.0"
     inkscape:pagecheckerboard="0"
     inkscape:deskcolor="#d1d1d1"
     inkscape:document-units="pt"
     showgrid="false"
     inkscape:zoom="6.5625"
     inkscape:cx="46.32381"
     inkscape:cy="14.628571"
     inkscape:window-width="1366"
     inkscape:window-height="705"
     inkscape:window-x="-8"
     inkscape:window-y="-8"
     inkscape:window-maximized="1"
     inkscape:current-layer="svg6" />
  <path
     id="path4965"
     style="fill:#245182;stroke-width:1.83753;stroke-linecap:round;fill-opacity:0.80000001"
     d="M 18 0 A 18 18 0 0 0 0 18 A 18 18 0 0 0 18 36 A 18 18 0 0 0 36 18 A 18 18 0 0 0 18 0 z M 14.994141 3.2358398 C 16.69275 2.8468644 20.063931 2.9551222 21.854004 3.4379883 C 25.956799 4.5646758 29.538014 7.5822137 31.432617 11.512207 C 34.659975 18.191854 32.777733 26.226131 26.950195 30.706055 C 25.970228 31.470593 24.18104 32.463534 23.135742 32.825684 C 22.508563 33.053704 22.443101 33.053245 22.142578 32.852051 L 21.815918 32.638184 L 21.763184 29.646973 L 21.723633 26.655762 L 21.306152 25.904297 L 20.900391 25.166016 L 21.999023 24.952148 C 24.298679 24.509521 26.009718 23.301559 26.819824 21.571289 C 28.021917 18.942352 27.864648 15.737617 26.44043 13.806152 C 26.152973 13.417177 26.127892 13.295943 26.232422 12.893555 C 26.428415 12.209494 26.38863 10.774274 26.166504 9.9829102 C 25.957444 9.2988499 25.956848 9.2856445 25.447266 9.2856445 C 24.807021 9.2856445 23.526607 9.7687466 22.520508 10.385742 L 21.763184 10.854492 L 20.953125 10.640625 C 19.881694 10.372366 16.315003 10.358953 15.125977 10.640625 L 14.289551 10.841309 L 13.335938 10.278809 C 12.225308 9.6349872 11.127531 9.244947 10.539551 9.3120117 C 10.186763 9.3522506 10.095642 9.43312 9.9257813 9.8891602 C 9.7167216 10.506156 9.6638699 12.545454 9.8598633 13.02832 C 9.9643931 13.309992 9.9254247 13.456587 9.5595703 13.939453 C 8.736398 15.039315 8.5268555 15.843956 8.5268555 17.802246 C 8.5399217 19.881253 8.8141521 20.99556 9.6503906 22.283203 C 10.55196 23.67815 11.924738 24.495879 14.145996 24.965332 L 15.203613 25.180664 L 14.890137 25.649414 C 14.720276 25.90426 14.511503 26.373631 14.433105 26.682129 C 14.354708 27.00404 14.197674 27.286421 14.080078 27.32666 C 13.191575 27.594919 12.603624 27.64829 11.963379 27.51416 C 11.244736 27.353205 10.761194 26.937479 9.5068359 25.368164 C 8.7881935 24.48291 7.6516915 24.067368 7.0898438 24.496582 C 6.8546517 24.67095 6.8673093 24.683201 7.2070313 24.991699 C 8.226197 25.917193 8.5928388 26.373653 9.0893555 27.366211 C 9.3898787 27.956381 9.8208429 28.600793 10.042969 28.788574 C 10.670148 29.338505 11.714726 29.579272 13.060547 29.512207 L 14.210449 29.444824 L 14.210449 31.02832 C 14.210449 32.570809 14.197379 32.62426 13.883789 32.838867 C 13.596332 33.040061 13.517687 33.040291 12.877441 32.825684 C 11.152699 32.248927 8.8663856 30.745843 7.3637695 29.189941 C 2.3463384 24.012544 1.5631594 15.898848 5.4960938 9.8496094 C 7.7434848 6.415895 11.008941 4.1479202 14.994141 3.2358398 z " />
  <g
     transform="matrix(0.01306624,0,0,-0.01341296,2.3205603,34.099711)"
     fill="#000000"
     stroke="none"
     id="g4"
     style="fill:#ffffff;fill-opacity:1" />
</svg>
