<?xml version="1.0" encoding="UTF-8" standalone="no"?>
<svg
   viewBox="52 42 48 48"
   version="1.1"
   id="svg5"
   sodipodi:docname="gmail.svg"
   width="48"
   height="48"
   inkscape:version="1.3 (0e150ed6c4, 2023-07-21)"
   xmlns:inkscape="http://www.inkscape.org/namespaces/inkscape"
   xmlns:sodipodi="http://sodipodi.sourceforge.net/DTD/sodipodi-0.dtd"
   xmlns="http://www.w3.org/2000/svg"
   xmlns:svg="http://www.w3.org/2000/svg">
  <defs
     id="defs5" />
  <sodipodi:namedview
     id="namedview5"
     pagecolor="#ffffff"
     bordercolor="#000000"
     borderopacity="0.25"
     inkscape:showpageshadow="2"
     inkscape:pageopacity="0.0"
     inkscape:pagecheckerboard="0"
     inkscape:deskcolor="#d1d1d1"
     inkscape:zoom="6.4603847"
     inkscape:cx="19.193903"
     inkscape:cy="13.389296"
     inkscape:window-width="1600"
     inkscape:window-height="829"
     inkscape:window-x="-8"
     inkscape:window-y="-8"
     inkscape:window-maximized="1"
     inkscape:current-layer="svg5" />
  <path
     id="path6"
     style="fill:#245182;fill-opacity:0.80000001;stroke-width:0.734831"
     d="M 76 42 A 24 24 0 0 0 52 66 A 24 24 0 0 0 76 90 A 24 24 0 0 0 100 66 A 24 24 0 0 0 76 42 z M 63.826172 54.507812 C 64.461598 54.507986 65.11169 54.704862 65.693359 55.140625 L 67.644531 56.601562 L 76 62.869141 L 84.355469 56.601562 L 86.306641 55.140625 C 88.371319 53.591247 91.320312 55.063025 91.320312 57.646484 L 91.320312 60.431641 L 91.320312 75.404297 C 91.320312 76.556756 90.38641 77.492188 89.230469 77.492188 L 84.355469 77.492188 L 84.355469 65.654297 L 76 71.921875 L 67.644531 65.654297 L 67.644531 77.492188 L 62.769531 77.492188 C 61.617071 77.492188 60.679688 76.560238 60.679688 75.404297 L 60.679688 60.431641 L 60.679688 57.646484 C 60.679688 55.789622 62.202302 54.507371 63.826172 54.507812 z " />
</svg>
