<?xml version="1.0" encoding="UTF-8" standalone="no"?>
<svg
   viewBox="52 42 48 48"
   version="1.1"
   id="svg5"
   sodipodi:docname="gmail-color.svg"
   width="48"
   height="48"
   inkscape:version="1.3 (0e150ed6c4, 2023-07-21)"
   xmlns:inkscape="http://www.inkscape.org/namespaces/inkscape"
   xmlns:sodipodi="http://sodipodi.sourceforge.net/DTD/sodipodi-0.dtd"
   xmlns="http://www.w3.org/2000/svg"
   xmlns:svg="http://www.w3.org/2000/svg">
  <defs
     id="defs5" />
  <sodipodi:namedview
     id="namedview5"
     pagecolor="#ffffff"
     bordercolor="#000000"
     borderopacity="0.25"
     inkscape:showpageshadow="2"
     inkscape:pageopacity="0.0"
     inkscape:pagecheckerboard="0"
     inkscape:deskcolor="#d1d1d1"
     inkscape:zoom="6.4603847"
     inkscape:cx="19.193903"
     inkscape:cy="13.544085"
     inkscape:window-width="1600"
     inkscape:window-height="829"
     inkscape:window-x="-8"
     inkscape:window-y="-8"
     inkscape:window-maximized="1"
     inkscape:current-layer="svg5" />
  <circle
     style="fill:#ffffff;fill-opacity:0.8;stroke-width:0.734831"
     id="path6"
     cx="76"
     cy="66"
     r="24" />
  <g
     id="g6"
     transform="matrix(0.34817578,0,0,0.34817578,42.575125,39.88978)">
    <path
       fill="#4285f4"
       d="M 58,108 H 72 V 74 L 52,59 v 43 c 0,3.32 2.69,6 6,6"
       id="path1" />
    <path
       fill="#34a853"
       d="m 120,108 h 14 c 3.32,0 6,-2.69 6,-6 V 59 l -20,15"
       id="path2" />
    <path
       fill="#fbbc04"
       d="m 120,48 v 26 l 20,-15 v -8 c 0,-7.42 -8.47,-11.65 -14.4,-7.2"
       id="path3" />
    <path
       fill="#ea4335"
       d="M 72,74 V 48 L 96,66 120,48 V 74 L 96,92"
       id="path4" />
    <path
       fill="#c5221f"
       d="m 52,51 v 8 L 72,74 V 48 L 66.4,43.8 C 60.46,39.35 52,43.58 52,51"
       id="path5" />
  </g>
</svg>
