<?xml version="1.0" encoding="UTF-8" standalone="no"?>
<svg
   height="48px"
   viewBox="0 0 48 48"
   width="48px"
   version="1.1"
   id="svg374"
   sodipodi:docname="meet.svg"
   inkscape:version="1.2.2 (732a01da63, 2022-12-09)"
   xmlns:inkscape="http://www.inkscape.org/namespaces/inkscape"
   xmlns:sodipodi="http://sodipodi.sourceforge.net/DTD/sodipodi-0.dtd"
   xmlns="http://www.w3.org/2000/svg"
   xmlns:svg="http://www.w3.org/2000/svg">
  <defs
     id="defs378" />
  <sodipodi:namedview
     id="namedview376"
     pagecolor="#ffffff"
     bordercolor="#000000"
     borderopacity="0.25"
     inkscape:showpageshadow="2"
     inkscape:pageopacity="0.0"
     inkscape:pagecheckerboard="0"
     inkscape:deskcolor="#d1d1d1"
     showgrid="false"
     inkscape:zoom="7.7339804"
     inkscape:cx="27.2822"
     inkscape:cy="30.126789"
     inkscape:window-width="1366"
     inkscape:window-height="705"
     inkscape:window-x="-8"
     inkscape:window-y="-8"
     inkscape:window-maximized="1"
     inkscape:current-layer="svg374" />
  <path
     id="path1103"
     style="fill:#245182;fill-opacity:0.80000001;stroke-width:1.54071"
     d="M 24 0 A 24 24 0 0 0 0 24 A 24 24 0 0 0 24 48 A 24 24 0 0 0 48 24 A 24 24 0 0 0 24 0 z M 16.220703 12.5 L 30.425781 12.5 C 31.546691 12.5 32.455078 13.408387 32.455078 14.529297 L 32.455078 18.283203 L 37.441406 14.076172 C 37.881112 13.717644 38.544922 14.03528 38.544922 14.603516 L 38.544922 33.396484 C 38.544922 33.964718 37.881112 34.282356 37.441406 33.923828 L 32.455078 29.716797 L 32.455078 33.470703 C 32.455078 34.591613 31.546691 35.5 30.425781 35.5 L 16.220703 35.5 L 11.484375 35.5 C 10.363466 35.5 9.4550781 34.591613 9.4550781 33.470703 L 9.4550781 28.734375 L 9.4550781 19.265625 L 16.220703 12.5 z M 16.220703 19.265625 L 16.220703 28.734375 L 25.691406 28.734375 L 25.691406 24 L 25.691406 19.265625 L 16.220703 19.265625 z " />
</svg>
