<?xml version="1.0" encoding="UTF-8" standalone="no"?>
<svg
   height="48px"
   viewBox="0 0 48 48"
   width="48px"
   version="1.1"
   id="svg374"
   sodipodi:docname="meet-color.svg"
   inkscape:version="1.2.2 (732a01da63, 2022-12-09)"
   xmlns:inkscape="http://www.inkscape.org/namespaces/inkscape"
   xmlns:sodipodi="http://sodipodi.sourceforge.net/DTD/sodipodi-0.dtd"
   xmlns="http://www.w3.org/2000/svg"
   xmlns:svg="http://www.w3.org/2000/svg">
  <defs
     id="defs378" />
  <sodipodi:namedview
     id="namedview376"
     pagecolor="#ffffff"
     bordercolor="#000000"
     borderopacity="0.25"
     inkscape:showpageshadow="2"
     inkscape:pageopacity="0.0"
     inkscape:pagecheckerboard="0"
     inkscape:deskcolor="#d1d1d1"
     showgrid="false"
     inkscape:zoom="7.7339804"
     inkscape:cx="27.2822"
     inkscape:cy="30.126789"
     inkscape:window-width="1366"
     inkscape:window-height="705"
     inkscape:window-x="-8"
     inkscape:window-y="-8"
     inkscape:window-maximized="1"
     inkscape:current-layer="svg374" />
  <circle
     style="fill:#ffffff;fill-opacity:1;stroke-width:1.54071"
     id="path1103"
     cx="24"
     cy="24"
     r="24" />
  <g
     id="g1114"
     transform="matrix(0.81344698,0,0,0.81344698,4.0705491,4.4772723)">
    <rect
       fill="#ffffff"
       height="13.305758"
       transform="rotate(-90)"
       width="13.305758"
       x="-30.65288"
       y="14.104876"
       id="rect358"
       style="stroke-width:0.83161" />
    <polygon
       fill="#1e88e5"
       points="13,31 13,17 8,16 3,17 3,31 8,32 "
       id="polygon360"
       transform="matrix(0.83160992,0,0,0.83160992,4.125557,4.0413619)" />
    <path
       d="m 34.895124,24 v 11.642539 c 0,1.377978 -1.116852,2.49483 -2.49483,2.49483 H 14.936486 l -0.83161,-4.15805 0.83161,-4.15805 H 26.579025 V 24 l 4.158049,-0.83161 z"
       fill="#4caf50"
       id="path362"
       style="stroke-width:0.83161" />
    <path
       d="M 34.895124,12.357461 V 24 H 26.579025 V 18.178731 H 14.936486 l -0.83161,-4.15805 0.83161,-4.1580496 h 17.463808 c 1.377978,0 2.49483,1.1168516 2.49483,2.4948296 z"
       fill="#fbc02d"
       id="path364"
       style="stroke-width:0.83161" />
    <path
       d="m 14.936486,29.821269 v 8.3161 H 9.1152165 c -1.3779777,0 -2.4948298,-1.116852 -2.4948298,-2.49483 v -5.82127 z"
       fill="#1565c0"
       id="path366"
       style="stroke-width:0.83161" />
    <polygon
       fill="#e53935"
       points="13,7 13,17 3,17 "
       id="polygon368"
       transform="matrix(0.83160992,0,0,0.83160992,4.125557,4.0413619)" />
    <polygon
       fill="#2e7d32"
       points="37,32.45 27,24 37,15.55 38,24 "
       id="polygon370"
       transform="matrix(0.83160992,0,0,0.83160992,4.125557,4.0413619)" />
    <path
       d="m 42.379613,12.448938 v 23.102124 c 0,0.698552 -0.814977,1.089409 -1.355524,0.648656 L 34.895124,31.027104 V 16.972896 l 6.128965,-5.172614 c 0.540547,-0.440753 1.355524,-0.0499 1.355524,0.648656 z"
       fill="#4caf50"
       id="path372"
       style="stroke-width:0.83161" />
  </g>
</svg>
