<?xml version="1.0" encoding="UTF-8" standalone="no"?>
<svg
   height="1024px"
   version="1.1"
   viewBox="0 0 1024 1024"
   width="1024px"
   id="svg22"
   sodipodi:docname="messenger-color.svg"
   inkscape:version="1.2.2 (732a01da63, 2022-12-09)"
   xmlns:inkscape="http://www.inkscape.org/namespaces/inkscape"
   xmlns:sodipodi="http://sodipodi.sourceforge.net/DTD/sodipodi-0.dtd"
   xmlns="http://www.w3.org/2000/svg"
   xmlns:svg="http://www.w3.org/2000/svg">
  <sodipodi:namedview
     id="namedview24"
     pagecolor="#ffffff"
     bordercolor="#000000"
     borderopacity="0.25"
     inkscape:showpageshadow="2"
     inkscape:pageopacity="0.0"
     inkscape:pagecheckerboard="0"
     inkscape:deskcolor="#d1d1d1"
     showgrid="false"
     inkscape:zoom="0.36253033"
     inkscape:cx="292.38933"
     inkscape:cy="466.16789"
     inkscape:window-width="1366"
     inkscape:window-height="705"
     inkscape:window-x="-8"
     inkscape:window-y="-8"
     inkscape:window-maximized="1"
     inkscape:current-layer="g20" />
  <title
     id="title2" />
  <defs
     id="defs13">
    <radialGradient
       cx="265.97926"
       cy="917.72096"
       fx="265.97926"
       fy="917.72096"
       id="radialGradient-1"
       r="871.67593"
       gradientUnits="userSpaceOnUse">
      <stop
         offset="0%"
         stop-color="#0099FF"
         id="stop4" />
      <stop
         offset="60.9753877%"
         stop-color="#A033FF"
         id="stop6" />
      <stop
         offset="93.482299%"
         stop-color="#FF5280"
         id="stop8" />
      <stop
         offset="100%"
         stop-color="#FF7061"
         id="stop10" />
    </radialGradient>
  </defs>
  <g
     fill="none"
     fill-rule="evenodd"
     id="g20"
     stroke="none"
     stroke-width="1">
    <circle
       style="fill:#ffffff;fill-opacity:1;stroke-width:1.74409"
       id="path425"
       cx="512"
       cy="512"
       r="512" />
    <rect
       fill="#ffffff"
       fill-opacity="0"
       height="800"
       id="bounding-box"
       width="800"
       x="157.22823"
       y="57.926186"
       style="stroke-width:0.78125" />
    <g
       id="logo"
       transform="matrix(0.87500002,0,0,0.87500161,63.99999,55.249804)">
      <path
         d="m 512,122 c -225.332,0 -400,165.056 -400,388 0,116.6144 47.792,217.3824 125.6224,286.984 6.5336,5.848 10.4776,14.04 10.7456,22.808 l 2.1784,71.152 c 0.696,22.696 24.1392,37.464 44.9072,28.296 l 79.3944,-35.048 c 6.7304,-2.968 14.272,-3.52 21.364,-1.568 C 432.696,892.656 471.5264,898 512,898 737.332,898 912,732.944 912,510 912,287.056 737.332,122 512,122 Z"
         fill="url(#radialGradient-1)"
         id="Path"
         style="fill:url(#radialGradient-1)" />
      <path
         d="m 271.8016,623.4688 117.5,-186.416 c 18.6904,-29.656 58.7144,-37.04 86.7584,-16.008 l 93.4536,70.0904 c 8.5744,6.432 20.372,6.3976 28.9104,-0.0824 l 126.2136,-95.788 c 16.8464,-12.784 38.836,7.376 27.5624,25.2664 L 634.7,606.9488 c -18.692,29.6544 -58.716,37.04 -86.7584,16.0064 l -93.456,-70.092 c -8.5736,-6.4304 -20.372,-6.396 -28.9096,0.084 l -126.2144,95.788 c -16.8456,12.7832 -38.836,-7.3768 -27.56,-25.2664 z"
         fill="#ffffff"
         id="path17" />
    </g>
  </g>
</svg>
