<?xml version="1.0" encoding="UTF-8" standalone="no"?>
<svg
   enable-background="new 0 0 32 32"
   version="1.1"
   viewBox="0 0 32 32"
   xml:space="preserve"
   id="svg4344"
   sodipodi:docname="youtube-color.svg"
   inkscape:version="1.2.2 (732a01da63, 2022-12-09)"
   xmlns:inkscape="http://www.inkscape.org/namespaces/inkscape"
   xmlns:sodipodi="http://sodipodi.sourceforge.net/DTD/sodipodi-0.dtd"
   xmlns="http://www.w3.org/2000/svg"
   xmlns:svg="http://www.w3.org/2000/svg"><defs
     id="defs4348" /><sodipodi:namedview
     id="namedview4346"
     pagecolor="#ffffff"
     bordercolor="#000000"
     borderopacity="0.25"
     inkscape:showpageshadow="2"
     inkscape:pageopacity="0.0"
     inkscape:pagecheckerboard="0"
     inkscape:deskcolor="#d1d1d1"
     showgrid="false"
     inkscape:zoom="16.40625"
     inkscape:cx="16.030476"
     inkscape:cy="20.906667"
     inkscape:window-width="1366"
     inkscape:window-height="705"
     inkscape:window-x="-8"
     inkscape:window-y="-8"
     inkscape:window-maximized="1"
     inkscape:current-layer="svg4344" /><rect
     style="fill:#ff0000;fill-opacity:1"
     id="rect6343"
     width="19.748571"
     height="15.116191"
     x="6.0952382"
     y="8.2895241" /><g
     id="OUTLINE_copy_2"
     style="fill:#ffffff;fill-opacity:1"><g
       id="g4341"
       style="fill:#ffffff;fill-opacity:1"><g
         id="g4335"
         style="fill:#ffffff;fill-opacity:1"><polygon
           points="13.83,19.259 19.262,16 13.83,12.741    "
           id="polygon4333"
           style="fill:#ffffff;fill-opacity:1" /></g><g
         id="g4339"
         style="fill:#ffffff;fill-opacity:1"><path
           d="M16,0C7.164,0,0,7.163,0,16s7.164,16,16,16s16-7.164,16-16S24.836,0,16,0z M24.688,16.701c0,1.5-0.174,3-0.174,3     s-0.17,1.278-0.69,1.839c-0.661,0.738-1.401,0.742-1.741,0.786C19.651,22.512,16,22.518,16,22.518s-4.518-0.044-5.908-0.186     c-0.387-0.077-1.254-0.055-1.916-0.792c-0.521-0.562-0.69-1.839-0.69-1.839s-0.174-1.499-0.174-3v-1.406     c0-1.5,0.174-2.999,0.174-2.999s0.17-1.278,0.69-1.841C8.837,9.716,9.577,9.712,9.917,9.67c2.431-0.188,6.079-0.188,6.079-0.188     h0.008c0,0,3.648,0,6.079,0.188c0.339,0.042,1.08,0.046,1.741,0.784c0.521,0.563,0.69,1.841,0.69,1.841s0.174,1.5,0.174,3V16.701     z"
           id="path4337"
           style="fill:#ffffff;fill-opacity:1" /></g></g></g></svg>
