<?xml version="1.0" encoding="UTF-8" standalone="no"?>
<!-- Generator: Adobe Illustrator 24.2.0, SVG Export Plug-In . SVG Version: 6.00 Build 0)  -->

<svg
   version="1.1"
   id="Layer_1"
   x="0px"
   y="0px"
   viewBox="0 0 309.312 309.312"
   enable-background="new 0 0 309.312 309.312"
   xml:space="preserve"
   sodipodi:docname="zalo.svg"
   inkscape:version="1.2.2 (732a01da63, 2022-12-09)"
   xmlns:inkscape="http://www.inkscape.org/namespaces/inkscape"
   xmlns:sodipodi="http://sodipodi.sourceforge.net/DTD/sodipodi-0.dtd"
   xmlns="http://www.w3.org/2000/svg"
   xmlns:svg="http://www.w3.org/2000/svg"><defs
   id="defs117">
		
		
		
		
		
	
		
		
		
	
			
		
	
	
	
</defs><sodipodi:namedview
   id="namedview115"
   pagecolor="#ffffff"
   bordercolor="#000000"
   borderopacity="0.25"
   inkscape:showpageshadow="2"
   inkscape:pageopacity="0.0"
   inkscape:pagecheckerboard="0"
   inkscape:deskcolor="#d1d1d1"
   showgrid="false"
   inkscape:zoom="1.6973152"
   inkscape:cx="145.52394"
   inkscape:cy="167.32308"
   inkscape:window-width="1366"
   inkscape:window-height="705"
   inkscape:window-x="-8"
   inkscape:window-y="-8"
   inkscape:window-maximized="1"
   inkscape:current-layer="Layer_1" />


<path
   id="path1467"
   style="fill:#245182;fill-opacity:0.80000001;stroke-width:2.47436"
   d="M 154.5 0 A 154.5 154.5 0 0 0 0 154.5 A 154.5 154.5 0 0 0 154.5 309 A 154.5 154.5 0 0 0 309 154.5 A 154.5 154.5 0 0 0 154.5 0 z M 184.32031 112.15625 L 198.71289 112.15625 C 198.63469 140.2376 198.63469 168.33075 198.71289 196.41211 C 194.01964 195.75281 186.20892 198.75822 184.44336 192.51172 C 184.15282 165.73778 184.42093 138.94136 184.32031 112.15625 z M 87.828125 113.07227 C 93.400496 113.08029 98.971681 113.09957 104.54492 113.13867 C 104.38848 117.50789 104.14255 122.26964 101.21484 125.80078 C 85.972936 144.77495 71.054963 163.99458 55.824219 182.96875 C 72.015964 183.06932 88.208652 183.00195 104.40039 183.00195 C 104.09868 186.7901 105.42908 191.20497 102.9707 194.49023 C 101.42862 196.61338 98.63537 196.42296 96.322266 196.44531 C 76.06303 196.33357 55.802745 196.54629 35.554688 196.33398 C 35.610554 192.05419 35.655645 187.31641 38.650391 183.9082 C 53.713518 165.01224 68.955092 146.24924 83.951172 127.30859 C 68.541636 127.33099 53.120469 127.20733 37.710938 127.375 C 37.610368 122.63702 37.643666 117.88837 37.666016 113.15039 C 54.394131 113.13367 71.11101 113.04819 87.828125 113.07227 z M 240.44727 131.04492 C 254.58955 130.87488 268.39763 140.67051 272.24023 154.49609 C 277.74924 170.93371 267.69258 190.47822 251.07617 195.48438 C 236.96285 200.457 220.06731 193.96409 212.74805 180.95703 C 207.00437 171.34701 206.65849 158.76439 211.87695 148.875 C 216.30204 140.14776 224.8496 133.76672 234.39258 131.74414 C 236.39839 131.29577 238.42694 131.06921 240.44727 131.04492 z M 139.55469 131.48828 C 142.61803 131.37601 145.69583 131.72021 148.67383 132.57227 C 152.60721 133.56676 156.17155 135.53342 159.61328 137.62305 C 159.57976 136.57265 159.50227 134.48204 159.46875 133.43164 C 163.97206 133.40929 168.46349 133.42079 172.9668 133.39844 C 172.94445 154.40636 172.92264 175.41449 172.97852 196.43359 C 169.67088 196.3442 166.30643 196.73492 163.05469 196.06445 C 160.7751 195.13697 160.07112 192.64508 159.16602 190.61133 C 146.74005 200.26603 127.21775 198.07581 116.89258 186.32031 C 105.88577 174.93357 105.31728 155.53605 115.51953 143.44531 C 121.3107 136.27134 130.3646 131.82509 139.55469 131.48828 z M 240.75391 144.70312 C 238.51068 144.69943 236.26142 145.10537 234.125 145.98047 C 224.33618 149.43338 219.06116 161.3456 222.88281 170.9668 C 226.04518 180.0628 236.69481 185.6276 245.94727 182.83398 C 256.50712 180.30857 262.88798 167.93991 259.14453 157.80469 C 256.70012 149.96512 248.76542 144.71636 240.75391 144.70312 z M 140.07227 144.92773 C 137.91219 144.96389 135.75447 145.38955 133.71094 146.25977 C 123.36342 149.90261 118.3471 163.23374 123.58789 172.84375 C 128.05767 182.20792 140.63933 186.14304 149.63477 180.98047 C 157.98206 176.60008 161.837 165.7269 158.25 157.0332 C 155.53496 149.64761 147.78681 144.79861 140.07227 144.92773 z " /><g
   id="g90"
   style="fill:#ffffff;fill-opacity:1"
   transform="matrix(1.1174471,0,0,1.1174471,-44.126146,-1.0939043)">
			
		</g><g
   id="g94"
   style="fill:#ffffff;fill-opacity:1"
   transform="matrix(1.1174471,0,0,1.1174471,-44.126146,-1.0939043)">
			
		</g>
</svg>
