<?xml version="1.0" encoding="UTF-8" standalone="no"?>
<!-- Generator: Adobe Illustrator 24.2.0, SVG Export Plug-In . SVG Version: 6.00 Build 0)  -->

<svg
   version="1.1"
   id="Layer_1"
   x="0px"
   y="0px"
   viewBox="0 0 309.312 309.312"
   enable-background="new 0 0 309.312 309.312"
   xml:space="preserve"
   sodipodi:docname="zalo-color.svg"
   inkscape:version="1.2.2 (732a01da63, 2022-12-09)"
   xmlns:inkscape="http://www.inkscape.org/namespaces/inkscape"
   xmlns:sodipodi="http://sodipodi.sourceforge.net/DTD/sodipodi-0.dtd"
   xmlns="http://www.w3.org/2000/svg"
   xmlns:svg="http://www.w3.org/2000/svg"><defs
   id="defs117" /><sodipodi:namedview
   id="namedview115"
   pagecolor="#ffffff"
   bordercolor="#000000"
   borderopacity="0.25"
   inkscape:showpageshadow="2"
   inkscape:pageopacity="0.0"
   inkscape:pagecheckerboard="0"
   inkscape:deskcolor="#d1d1d1"
   showgrid="false"
   inkscape:zoom="1.2001831"
   inkscape:cx="59.990846"
   inkscape:cy="182.47216"
   inkscape:window-width="1366"
   inkscape:window-height="705"
   inkscape:window-x="-8"
   inkscape:window-y="-8"
   inkscape:window-maximized="1"
   inkscape:current-layer="g112" />


<g
   id="g112">
	
	<g
   id="g106"
   style="fill:#ffffff;fill-opacity:1">
		<g
   id="g100"
   style="fill:#ffffff;fill-opacity:1">
			<circle
   style="fill:#ffffff;fill-opacity:1;stroke-width:2.47436"
   id="path1467"
   cx="154.5"
   cy="154.5"
   r="154.5" />
		</g>
		
		
	</g><g
   id="g1683"
   transform="matrix(1.1174471,0,0,1.1174471,-44.126146,-1.0939043)"
   style="fill:#0068ff;fill-opacity:1"><g
     id="g96"
     style="fill:#0068ff;fill-opacity:1">
		
		<path
   fill="#0068FF"
   d="m 204.436,101.347 c 4.29,0 8.58,0 12.88,0 -0.07,25.13 -0.07,50.27 0,75.4 -4.2,-0.59 -11.19,2.1 -12.77,-3.49 -0.26,-23.96 -0.02,-47.94 -0.11,-71.91 z"
   id="path84"
   style="fill:#0068ff;fill-opacity:1" />
		<path
   fill="#0068FF"
   d="m 73.196,102.237 c 19.96,-0.02 39.9,-0.15 59.85,-0.01 -0.14,3.91 -0.36,8.17 -2.98,11.33 -13.64,16.98 -26.99,34.18 -40.62,51.16 14.49,0.09 28.98,0.03 43.47,0.03 -0.27,3.39 0.92,7.34 -1.28,10.28 -1.38,1.9 -3.88,1.73 -5.95,1.75 -18.13,-0.1 -36.26,0.09 -54.38,-0.1 0.05,-3.83 0.09,-8.07 2.77,-11.12 13.48,-16.91 27.12,-33.7 40.54,-50.65 -13.79,0.02 -27.59,-0.09 -41.38,0.06 -0.09,-4.24 -0.06,-8.49 -0.04,-12.73 z"
   id="path86"
   style="fill:#0068ff;fill-opacity:1" />
		<g
   id="g90"
   style="fill:#0068ff;fill-opacity:1">
			<path
   fill="#0068FF"
   d="m 249.246,118.877 c 14.36,-3.21 29.94,6.22 33.87,20.36 4.93,14.71 -4.07,32.2 -18.94,36.68 -12.63,4.45 -27.75,-1.36 -34.3,-13 -5.14,-8.6 -5.45,-19.86 -0.78,-28.71 3.96,-7.81 11.61,-13.52 20.15,-15.33 z m -0.24,12.74 c -8.76,3.09 -13.48,13.75 -10.06,22.36 2.83,8.14 12.36,13.12 20.64,10.62 9.45,-2.26 15.16,-13.33 11.81,-22.4 -2.8,-8.98 -13.65,-14.16 -22.39,-10.58 z"
   id="path88"
   style="fill:#0068ff;fill-opacity:1" />
		</g>
		<g
   id="g94"
   style="fill:#0068ff;fill-opacity:1">
			<path
   fill="#0068FF"
   d="m 142.866,129.347 c 6.91,-8.56 19.01,-12.78 29.67,-9.73 3.52,0.89 6.71,2.65 9.79,4.52 -0.03,-0.94 -0.1,-2.81 -0.13,-3.75 4.03,-0.02 8.05,-0.01 12.08,-0.03 -0.02,18.8 -0.04,37.6 0.01,56.41 -2.96,-0.08 -5.97,0.27 -8.88,-0.33 -2.04,-0.83 -2.67,-3.06 -3.48,-4.88 -11.12,8.64 -28.59,6.68 -37.83,-3.84 -9.85,-10.19 -10.36,-27.55 -1.23,-38.37 z m 16.28,2.52 c -9.26,3.26 -13.75,15.19 -9.06,23.79 4,8.38 15.26,11.9 23.31,7.28 7.47,-3.92 10.92,-13.65 7.71,-21.43 -3.11,-8.46 -13.6,-13.2 -21.96,-9.64 z"
   id="path92"
   style="fill:#0068ff;fill-opacity:1" />
		</g>
	</g></g>
	
</g>
</svg>
